<?xml version="1.0" encoding="UTF-8" standalone="no"?>
<!-- Generator: Adobe Illustrator 18.0.0, SVG Export Plug-In . SVG Version: 6.00 Build 0)  -->

<svg
   xmlns:dc="http://purl.org/dc/elements/1.1/"
   xmlns:cc="http://creativecommons.org/ns#"
   xmlns:rdf="http://www.w3.org/1999/02/22-rdf-syntax-ns#"
   xmlns:svg="http://www.w3.org/2000/svg"
   xmlns="http://www.w3.org/2000/svg"
   xmlns:sodipodi="http://sodipodi.sourceforge.net/DTD/sodipodi-0.dtd"
   xmlns:inkscape="http://www.inkscape.org/namespaces/inkscape"
   version="1.1"
   id="Capa_1"
   x="0px"
   y="0px"
   viewBox="0 0 162.227 162.227"
   style="enable-background:new 0 0 162.227 162.227;"
   xml:space="preserve"
   inkscape:version="0.91 r13725"
   sodipodi:docname="sun2.svg"><metadata
     id="metadata4268"><rdf:RDF><cc:Work
         rdf:about=""><dc:format>image/svg+xml</dc:format><dc:type
           rdf:resource="http://purl.org/dc/dcmitype/StillImage" /></cc:Work></rdf:RDF></metadata><defs
     id="defs4266" /><sodipodi:namedview
     pagecolor="#ffffff"
     bordercolor="#666666"
     borderopacity="1"
     objecttolerance="10"
     gridtolerance="10"
     guidetolerance="10"
     inkscape:pageopacity="0"
     inkscape:pageshadow="2"
     inkscape:window-width="1928"
     inkscape:window-height="1060"
     id="namedview4264"
     showgrid="false"
     inkscape:zoom="10.787353"
     inkscape:cx="70.916376"
     inkscape:cy="81.113502"
     inkscape:window-x="0"
     inkscape:window-y="0"
     inkscape:window-maximized="0"
     inkscape:current-layer="Capa_1" /><rect
     x="29.576"
     y="25.945"
     transform="matrix(0.5 0.866 -0.866 0.5 51.6498 -29.6894)"
     style="fill:#FDD633;"
     width="43.92"
     height="7.88"
     id="rect4212" /><rect
     x="7.924"
     y="47.597"
     transform="matrix(0.866 0.5 -0.5 0.866 29.7724 -8.0378)"
     style="fill:#FDD633;"
     width="43.92"
     height="7.88"
     id="rect4214" /><rect
     x="0"
     y="77.173"
     style="fill:#FDD633;"
     width="43.921"
     height="7.881"
     id="rect4216" /><rect
     x="7.925"
     y="106.748"
     transform="matrix(0.866 -0.5 0.5 0.866 -51.3401 29.7717)"
     style="fill:#FDD633;"
     width="43.921"
     height="7.881"
     id="rect4218" /><rect
     x="29.576"
     y="128.4"
     transform="matrix(0.5 -0.866 0.866 0.5 -88.8423 110.8023)"
     style="fill:#FDD633;"
     width="43.92"
     height="7.881"
     id="rect4220" /><rect
     x="88.727"
     y="128.4"
     transform="matrix(-0.5 -0.866 0.866 -0.5 51.4222 294.3696)"
     style="fill:#FDD633;"
     width="43.922"
     height="7.881"
     id="rect4222" /><rect
     x="110.379"
     y="106.75"
     transform="matrix(-0.866 -0.5 0.5 -0.866 191.6055 272.7198)"
     style="fill:#FDD633;"
     width="43.921"
     height="7.88"
     id="rect4224" /><rect
     x="118.304"
     y="77.174"
     style="fill:#FDD633;"
     width="43.922"
     height="7.88"
     id="rect4226" /><rect
     x="110.38"
     y="47.597"
     transform="matrix(-0.866 0.5 -0.5 -0.866 272.7201 30.001)"
     style="fill:#FDD633;"
     width="43.921"
     height="7.881"
     id="rect4228" /><rect
     x="88.729"
     y="25.946"
     transform="matrix(-0.5 0.866 -0.866 -0.5 191.9164 -51.0307)"
     style="fill:#FDD633;"
     width="43.922"
     height="7.88"
     id="rect4230" /><rect
     x="57.665"
     y="30.643"
     transform="matrix(0.2588 0.9659 -0.9659 0.2588 84.2804 -40.6751)"
     style="fill:#FDD633;"
     width="21.961"
     height="7.879"
     id="rect4232" /><rect
     x="36.07"
     y="43.11"
     transform="matrix(0.7071 0.7071 -0.7071 0.7071 47.0519 -19.4887)"
     style="fill:#FDD633;"
     width="21.96"
     height="7.88"
     id="rect4234" /><rect
     x="30.642"
     y="57.665"
     transform="matrix(0.2586 -0.966 0.966 0.2586 -40.6714 84.2953)"
     style="fill:#FDD633;"
     width="7.88"
     height="21.96"
     id="rect4236" /><rect
     x="30.643"
     y="82.6"
     transform="matrix(-0.2589 -0.9659 0.9659 -0.2589 -46.8554 151.2095)"
     style="fill:#FDD633;"
     width="7.881"
     height="21.96"
     id="rect4238" /><rect
     x="43.11"
     y="104.194"
     transform="matrix(0.7071 0.7071 -0.7071 0.7071 95.2281 0.4667)"
     style="fill:#FDD633;"
     width="7.881"
     height="21.961"
     id="rect4240" /><rect
     x="64.706"
     y="116.663"
     transform="matrix(-0.9659 -0.2589 0.2589 -0.9659 101.9097 268.7052)"
     style="fill:#FDD633;"
     width="7.881"
     height="21.961"
     id="rect4242" /><rect
     x="82.602"
     y="123.702"
     transform="matrix(-0.2588 -0.9659 0.9659 -0.2588 -5.4927 251.0713)"
     style="fill:#FDD633;"
     width="21.961"
     height="7.882"
     id="rect4244" /><rect
     x="104.196"
     y="111.235"
     transform="matrix(-0.7071 -0.7071 0.7071 -0.7071 115.1749 278.058)"
     style="fill:#FDD633;"
     width="21.961"
     height="7.881"
     id="rect4246" /><rect
     x="123.703"
     y="82.6"
     transform="matrix(-0.2589 0.9659 -0.9659 -0.2589 251.0766 -5.4887)"
     style="fill:#FDD633;"
     width="7.881"
     height="21.961"
     id="rect4248" /><rect
     x="123.704"
     y="57.664"
     transform="matrix(0.2589 0.9659 -0.9659 0.2589 160.9058 -72.4184)"
     style="fill:#FDD633;"
     width="7.881"
     height="21.961"
     id="rect4250" /><rect
     x="111.236"
     y="36.07"
     transform="matrix(-0.7072 -0.707 0.707 -0.7072 163.3603 161.7557)"
     style="fill:#FDD633;"
     width="7.881"
     height="21.96"
     id="rect4252" /><rect
     x="89.641"
     y="23.601"
     transform="matrix(0.9659 0.2588 -0.2588 0.9659 12.1393 -23.0427)"
     style="fill:#FDD633;"
     width="7.882"
     height="21.961"
     id="rect4254" /><rect
     x="77.174004"
     y="0"
     style="fill:#fdd633"
     width="7.8800001"
     height="43.919998"
     id="rect4258" /><rect
     x="77.172997"
     y="118.305"
     style="fill:#fdd633"
     width="7.8800001"
     height="43.921001"
     id="rect4260" /><circle
     style="fill:#fdd633;fill-opacity:1;stroke:none;stroke-width:1;stroke-miterlimit:4;stroke-dasharray:none"
     id="path4272"
     cx="81.113503"
     cy="81.113503"
     r="34" /></svg>